<svg width="16" height="16" viewBox="0 0 16 16" fill="none" xmlns="http://www.w3.org/2000/svg">
<g id="vuesax/linear/cup">
<g id="cup">
<path id="Vector" d="M8.09961 11V12.4" stroke="#A39F9A" stroke-linecap="round" stroke-linejoin="round"/>
<path id="Vector_2" d="M4.7666 14.667H11.4333V14.0003C11.4333 13.267 10.8333 12.667 10.0999 12.667H6.09993C5.3666 12.667 4.7666 13.267 4.7666 14.0003V14.667V14.667Z" stroke="#A39F9A" stroke-miterlimit="10"/>
<path id="Vector_3" d="M4.09961 14.667H12.0996" stroke="#A39F9A" stroke-linecap="round" stroke-linejoin="round"/>
<path id="Vector_4" d="M7.99967 10.6663C5.41967 10.6663 3.33301 8.57967 3.33301 5.99967V3.99967C3.33301 2.52634 4.52634 1.33301 5.99967 1.33301H9.99967C11.473 1.33301 12.6663 2.52634 12.6663 3.99967V5.99967C12.6663 8.57967 10.5797 10.6663 7.99967 10.6663Z" stroke="#A39F9A" stroke-linecap="round" stroke-linejoin="round"/>
<path id="Vector_5" d="M3.64702 7.76706C3.14702 7.60706 2.70702 7.31372 2.36035 6.96706C1.76035 6.30039 1.36035 5.50039 1.36035 4.56706C1.36035 3.63372 2.09368 2.90039 3.02702 2.90039H3.46035C3.32702 3.20706 3.26035 3.54706 3.26035 3.90039V5.90039C3.26035 6.56706 3.40035 7.19372 3.64702 7.76706Z" stroke="#A39F9A" stroke-linecap="round" stroke-linejoin="round"/>
<path id="Vector_6" d="M12.3535 7.76706C12.8535 7.60706 13.2935 7.31372 13.6402 6.96706C14.2402 6.30039 14.6402 5.50039 14.6402 4.56706C14.6402 3.63372 13.9068 2.90039 12.9735 2.90039H12.5402C12.6735 3.20706 12.7402 3.54706 12.7402 3.90039V5.90039C12.7402 6.56706 12.6002 7.19372 12.3535 7.76706Z" stroke="#A39F9A" stroke-linecap="round" stroke-linejoin="round"/>
</g>
</g>
</svg>
