<svg width="16" height="16" viewBox="0 0 16 16" fill="none" xmlns="http://www.w3.org/2000/svg">
<g id="vuesax/outline/timer">
<g id="timer">
<path id="Vector" d="M8.00033 15.1667C4.50699 15.1667 1.66699 12.3267 1.66699 8.83333C1.66699 5.34 4.50699 2.5 8.00033 2.5C11.4937 2.5 14.3337 5.34 14.3337 8.83333C14.3337 12.3267 11.4937 15.1667 8.00033 15.1667ZM8.00033 3.5C5.06033 3.5 2.66699 5.89333 2.66699 8.83333C2.66699 11.7733 5.06033 14.1667 8.00033 14.1667C10.9403 14.1667 13.3337 11.7733 13.3337 8.83333C13.3337 5.89333 10.9403 3.5 8.00033 3.5Z" fill="#A39F9A"/>
<path id="Vector_2" d="M8 9.16634C7.72667 9.16634 7.5 8.93967 7.5 8.66634V5.33301C7.5 5.05967 7.72667 4.83301 8 4.83301C8.27333 4.83301 8.5 5.05967 8.5 5.33301V8.66634C8.5 8.93967 8.27333 9.16634 8 9.16634Z" fill="#A39F9A"/>
<path id="Vector_3" d="M10 1.83301H6C5.72667 1.83301 5.5 1.60634 5.5 1.33301C5.5 1.05967 5.72667 0.833008 6 0.833008H10C10.2733 0.833008 10.5 1.05967 10.5 1.33301C10.5 1.60634 10.2733 1.83301 10 1.83301Z" fill="#A39F9A"/>
</g>
</g>
</svg>
