<svg width="16" height="16" viewBox="0 0 16 16" fill="none" xmlns="http://www.w3.org/2000/svg">
<path d="M10.8532 14.7337H8.31991C7.94657 14.7337 7.13324 14.6203 6.69991 14.187L4.67991 12.627L5.29324 11.8337L7.35991 13.4337C7.52658 13.5937 7.94657 13.727 8.31991 13.727H10.8532C11.4532 13.727 12.0999 13.247 12.2332 12.707L13.8466 7.80699C13.9532 7.51365 13.9332 7.24699 13.7932 7.05365C13.6466 6.84699 13.3799 6.72699 13.0532 6.72699H10.3866C10.0399 6.72699 9.71991 6.58032 9.49991 6.32699C9.27324 6.06699 9.17324 5.72032 9.22658 5.36032L9.55991 3.22032C9.63991 2.84699 9.38658 2.42699 9.02658 2.30699C8.69991 2.18699 8.27991 2.36032 8.13324 2.57365L5.39991 6.64032L4.57324 6.08699L7.30658 2.02032C7.72658 1.39365 8.64658 1.09365 9.36658 1.36699C10.1999 1.64032 10.7332 2.56032 10.5466 3.41365L10.2199 5.51365C10.2132 5.56032 10.2132 5.62699 10.2599 5.68032C10.2932 5.71365 10.3399 5.73365 10.3932 5.73365H13.0599C13.7132 5.73365 14.2799 6.00699 14.6132 6.48032C14.9399 6.94032 15.0066 7.54699 14.7932 8.13365L13.1999 12.987C12.9532 13.9537 11.9266 14.7337 10.8532 14.7337Z" fill="#A39F9A"/>
<path d="M3.58691 14.0003H2.92025C1.68691 14.0003 1.08691 13.4203 1.08691 12.2336V5.70026C1.08691 4.51359 1.68691 3.93359 2.92025 3.93359H3.58691C4.82025 3.93359 5.42025 4.51359 5.42025 5.70026V12.2336C5.42025 13.4203 4.82025 14.0003 3.58691 14.0003ZM2.92025 4.93359C2.19358 4.93359 2.08691 5.10693 2.08691 5.70026V12.2336C2.08691 12.8269 2.19358 13.0003 2.92025 13.0003H3.58691C4.31358 13.0003 4.42025 12.8269 4.42025 12.2336V5.70026C4.42025 5.10693 4.31358 4.93359 3.58691 4.93359H2.92025Z" fill="#A39F9A"/>
</svg>
