<svg width="16" height="16" viewBox="0 0 16 16" fill="none" xmlns="http://www.w3.org/2000/svg">
<path d="M2 14.6671H14" stroke="#A39F9A" stroke-linecap="round" stroke-linejoin="round"/>
<path d="M3.73332 5.586H2.66667C2.3 5.586 2 5.886 2 6.25267V11.9993C2 12.366 2.3 12.666 2.66667 12.666H3.73332C4.09998 12.666 4.39998 12.366 4.39998 11.9993V6.25267C4.39998 5.886 4.09998 5.586 3.73332 5.586Z" stroke="#A39F9A" stroke-linecap="round" stroke-linejoin="round"/>
<path d="M8.53312 3.46002H7.46647C7.0998 3.46002 6.7998 3.76002 6.7998 4.12669V12C6.7998 12.3667 7.0998 12.6667 7.46647 12.6667H8.53312C8.89979 12.6667 9.19979 12.3667 9.19979 12V4.12669C9.19979 3.76002 8.89979 3.46002 8.53312 3.46002Z" stroke="#A39F9A" stroke-linecap="round" stroke-linejoin="round"/>
<path d="M13.3333 1.33307H12.2667C11.9 1.33307 11.6 1.63307 11.6 1.99974V11.9997C11.6 12.3664 11.9 12.6664 12.2667 12.6664H13.3333C13.7 12.6664 14 12.3664 14 11.9997V1.99974C14 1.63307 13.7 1.33307 13.3333 1.33307Z" stroke="#A39F9A" stroke-linecap="round" stroke-linejoin="round"/>
</svg>
