<svg width="17" height="16" viewBox="0 0 17 16" fill="none" xmlns="http://www.w3.org/2000/svg">
<g id="vuesax/outline/box">
<g id="box">
<path id="Vector" d="M8.33323 8.8669C8.24656 8.8669 8.15989 8.8469 8.07989 8.80023L2.19323 5.39356C1.95989 5.25356 1.87323 4.9469 2.01323 4.7069C2.15323 4.4669 2.45989 4.3869 2.69989 4.5269L8.33323 7.7869L13.9332 4.5469C14.1732 4.4069 14.4799 4.49356 14.6199 4.7269C14.7599 4.9669 14.6732 5.27356 14.4399 5.41356L8.59323 8.80023C8.50656 8.84023 8.41989 8.8669 8.33323 8.8669Z" fill="#A39F9A"/>
<path id="Vector_2" d="M8.3335 14.907C8.06016 14.907 7.8335 14.6804 7.8335 14.407V8.36035C7.8335 8.08702 8.06016 7.86035 8.3335 7.86035C8.60683 7.86035 8.8335 8.08702 8.8335 8.36035V14.407C8.8335 14.6804 8.60683 14.907 8.3335 14.907Z" fill="#A39F9A"/>
<path id="Vector_3" d="M8.33391 15.1663C7.74725 15.1663 7.16725 15.0397 6.70725 14.7863L3.14725 12.8063C2.18058 12.273 1.42725 10.9863 1.42725 9.87967V6.11301C1.42725 5.00634 2.18058 3.72634 3.14725 3.18634L6.70725 1.21301C7.62058 0.706341 9.04725 0.706341 9.96058 1.21301L13.5206 3.19301C14.4872 3.72634 15.2406 5.01301 15.2406 6.11967V9.88634C15.2406 10.993 14.4872 12.273 13.5206 12.813L9.96058 14.7863C9.50058 15.0397 8.92058 15.1663 8.33391 15.1663ZM8.33391 1.83301C7.91391 1.83301 7.50058 1.91967 7.19391 2.08634L3.63391 4.06634C2.99391 4.41967 2.42725 5.37967 2.42725 6.11301V9.87967C2.42725 10.613 2.99391 11.573 3.63391 11.933L7.19391 13.913C7.80058 14.253 8.86725 14.253 9.47391 13.913L13.0339 11.933C13.6739 11.573 14.2406 10.6197 14.2406 9.87967V6.11301C14.2406 5.37967 13.6739 4.41967 13.0339 4.05967L9.47391 2.07967C9.16725 1.91967 8.75391 1.83301 8.33391 1.83301Z" fill="#A39F9A"/>
</g>
</g>
</svg>
