<svg width="16" height="16" viewBox="0 0 16 16" fill="none" xmlns="http://www.w3.org/2000/svg">
<path d="M12.8663 5.27999V8.71334C12.8663 10.7667 11.693 11.6466 9.93298 11.6466H4.07298C3.77298 11.6466 3.48631 11.62 3.21965 11.56C3.05298 11.5334 2.89298 11.4867 2.74632 11.4333C1.74632 11.06 1.13965 10.1933 1.13965 8.71334V5.27999C1.13965 3.22666 2.31298 2.34668 4.07298 2.34668H9.93298C11.4263 2.34668 12.4996 2.98001 12.7863 4.42668C12.833 4.69334 12.8663 4.96666 12.8663 5.27999Z" stroke="#A39F9A" stroke-miterlimit="10" stroke-linecap="round" stroke-linejoin="round"/>
<path d="M14.8674 7.28007V10.7134C14.8674 12.7668 13.694 13.6467 11.934 13.6467H6.07404C5.5807 13.6467 5.13404 13.5801 4.74738 13.4334C3.95404 13.1401 3.41404 12.5334 3.2207 11.5601C3.48737 11.6201 3.77404 11.6467 4.07404 11.6467H9.93404C11.694 11.6467 12.8674 10.7668 12.8674 8.71342V5.28007C12.8674 4.96674 12.8407 4.68676 12.7874 4.42676C14.054 4.69342 14.8674 5.58674 14.8674 7.28007Z" stroke="#A39F9A" stroke-miterlimit="10" stroke-linecap="round" stroke-linejoin="round"/>
<path d="M6.99829 8.75989C7.97031 8.75989 8.7583 7.9719 8.7583 6.99988C8.7583 6.02786 7.97031 5.23987 6.99829 5.23987C6.02627 5.23987 5.23828 6.02786 5.23828 6.99988C5.23828 7.9719 6.02627 8.75989 6.99829 8.75989Z" stroke="#A39F9A" stroke-miterlimit="10" stroke-linecap="round" stroke-linejoin="round"/>
<path d="M3.18652 5.53333V8.46667" stroke="#A39F9A" stroke-miterlimit="10" stroke-linecap="round" stroke-linejoin="round"/>
<path d="M10.8145 5.53357V8.46692" stroke="#A39F9A" stroke-miterlimit="10" stroke-linecap="round" stroke-linejoin="round"/>
</svg>
