<svg width="16" height="16" viewBox="0 0 16 16" fill="none" xmlns="http://www.w3.org/2000/svg">
<path d="M7.99973 8.8669C7.91306 8.8669 7.8264 8.8469 7.7464 8.80023L1.85973 5.39356C1.6264 5.25356 1.53973 4.9469 1.67973 4.7069C1.81973 4.4669 2.1264 4.3869 2.3664 4.5269L7.99973 7.7869L13.5997 4.5469C13.8397 4.4069 14.1464 4.49356 14.2864 4.7269C14.4264 4.9669 14.3397 5.27356 14.1064 5.41356L8.25973 8.80023C8.17306 8.84023 8.0864 8.8669 7.99973 8.8669Z" fill="#A39F9A"/>
<path d="M8 14.907C7.72667 14.907 7.5 14.6804 7.5 14.407V8.36035C7.5 8.08702 7.72667 7.86035 8 7.86035C8.27333 7.86035 8.5 8.08702 8.5 8.36035V14.407C8.5 14.6804 8.27333 14.907 8 14.907Z" fill="#A39F9A"/>
<path d="M8.00042 15.1663C7.41375 15.1663 6.83375 15.0397 6.37375 14.7863L2.81375 12.8063C1.84708 12.273 1.09375 10.9863 1.09375 9.87967V6.11301C1.09375 5.00634 1.84708 3.72634 2.81375 3.18634L6.37375 1.21301C7.28708 0.706341 8.71375 0.706341 9.62708 1.21301L13.1871 3.19301C14.1538 3.72634 14.9071 5.01301 14.9071 6.11967V9.88634C14.9071 10.993 14.1538 12.273 13.1871 12.813L9.62708 14.7863C9.16708 15.0397 8.58708 15.1663 8.00042 15.1663ZM8.00042 1.83301C7.58042 1.83301 7.16708 1.91967 6.86042 2.08634L3.30042 4.06634C2.66042 4.41967 2.09375 5.37967 2.09375 6.11301V9.87967C2.09375 10.613 2.66042 11.573 3.30042 11.933L6.86042 13.913C7.46708 14.253 8.53375 14.253 9.14042 13.913L12.7004 11.933C13.3404 11.573 13.9071 10.6197 13.9071 9.87967V6.11301C13.9071 5.37967 13.3404 4.41967 12.7004 4.05967L9.14042 2.07967C8.83375 1.91967 8.42042 1.83301 8.00042 1.83301Z" fill="#A39F9A"/>
</svg>
