<svg width="16" height="16" viewBox="0 0 16 16" fill="none" xmlns="http://www.w3.org/2000/svg">
<path d="M7.99967 15.1663C7.47967 15.1663 6.97301 14.8997 6.62634 14.433L5.95301 13.533C5.81301 13.3463 5.62634 13.2397 5.42634 13.2263C5.22634 13.2197 5.02634 13.3063 4.86634 13.473L4.48634 13.133L4.85301 13.473C3.89301 14.4997 3.15301 14.4197 2.79967 14.2797C2.43967 14.1397 1.83301 13.6797 1.83301 12.1997V4.69301C1.83301 1.73301 2.68634 0.833008 5.47967 0.833008H10.5197C13.313 0.833008 14.1663 1.73301 14.1663 4.69301V12.1997C14.1663 13.673 13.5597 14.133 13.1997 14.2797C12.8463 14.4197 12.113 14.4997 11.1463 13.473C10.9863 13.2997 10.7863 13.2063 10.5797 13.2263C10.3797 13.2397 10.1863 13.3463 10.0463 13.533L9.37301 14.433C9.02634 14.8997 8.51967 15.1663 7.99967 15.1663ZM5.38634 12.2197C5.41301 12.2197 5.44634 12.2197 5.47301 12.2197C5.96634 12.2463 6.43301 12.5063 6.74634 12.9263L7.41967 13.8263C7.74634 14.2597 8.24634 14.2597 8.57301 13.8263L9.24634 12.9263C9.56634 12.5063 10.0263 12.2463 10.5263 12.2197C11.0197 12.193 11.513 12.3997 11.873 12.7863C12.3797 13.3263 12.7063 13.393 12.8263 13.3463C12.9863 13.2797 13.1597 12.893 13.1597 12.1997V4.69301C13.1597 2.28634 12.7397 1.83301 10.513 1.83301H5.47967C3.25301 1.83301 2.83301 2.28634 2.83301 4.69301V12.1997C2.83301 12.8997 3.00634 13.2863 3.16634 13.3463C3.27967 13.393 3.61301 13.3263 4.11967 12.7863C4.47967 12.4197 4.92634 12.2197 5.38634 12.2197Z" fill="#A39F9A"/>
<path d="M10.82 7.83301H7.15332C6.87999 7.83301 6.65332 7.60634 6.65332 7.33301C6.65332 7.05967 6.87999 6.83301 7.15332 6.83301H10.82C11.0933 6.83301 11.32 7.05967 11.32 7.33301C11.32 7.60634 11.0933 7.83301 10.82 7.83301Z" fill="#A39F9A"/>
<path d="M10.82 5.16699H7.15332C6.87999 5.16699 6.65332 4.94033 6.65332 4.66699C6.65332 4.39366 6.87999 4.16699 7.15332 4.16699H10.82C11.0933 4.16699 11.32 4.39366 11.32 4.66699C11.32 4.94033 11.0933 5.16699 10.82 5.16699Z" fill="#A39F9A"/>
<path d="M5.1862 5.33333C4.81953 5.33333 4.51953 5.03333 4.51953 4.66667C4.51953 4.3 4.81953 4 5.1862 4C5.55286 4 5.85286 4.3 5.85286 4.66667C5.85286 5.03333 5.55286 5.33333 5.1862 5.33333Z" fill="#A39F9A"/>
<path d="M5.1862 8.00033C4.81953 8.00033 4.51953 7.70033 4.51953 7.33366C4.51953 6.96699 4.81953 6.66699 5.1862 6.66699C5.55286 6.66699 5.85286 6.96699 5.85286 7.33366C5.85286 7.70033 5.55286 8.00033 5.1862 8.00033Z" fill="#A39F9A"/>
</svg>
