<svg width="16" height="16" viewBox="0 0 16 16" fill="none" xmlns="http://www.w3.org/2000/svg">
<path d="M8.00033 15.1667C4.50699 15.1667 1.66699 12.3267 1.66699 8.83333C1.66699 5.34 4.50699 2.5 8.00033 2.5C11.4937 2.5 14.3337 5.34 14.3337 8.83333C14.3337 9.10667 14.107 9.33333 13.8337 9.33333C13.5603 9.33333 13.3337 9.10667 13.3337 8.83333C13.3337 5.89333 10.9403 3.5 8.00033 3.5C5.06033 3.5 2.66699 5.89333 2.66699 8.83333C2.66699 11.7733 5.06033 14.1667 8.00033 14.1667C8.27366 14.1667 8.50033 14.3933 8.50033 14.6667C8.50033 14.94 8.27366 15.1667 8.00033 15.1667Z" fill="#A39F9A"/>
<path d="M8 9.16634C7.72667 9.16634 7.5 8.93967 7.5 8.66634V5.33301C7.5 5.05967 7.72667 4.83301 8 4.83301C8.27333 4.83301 8.5 5.05967 8.5 5.33301V8.66634C8.5 8.93967 8.27333 9.16634 8 9.16634Z" fill="#A39F9A"/>
<path d="M10 1.83301H6C5.72667 1.83301 5.5 1.60634 5.5 1.33301C5.5 1.05967 5.72667 0.833008 6 0.833008H10C10.2733 0.833008 10.5 1.05967 10.5 1.33301C10.5 1.60634 10.2733 1.83301 10 1.83301Z" fill="#A39F9A"/>
<path d="M12.667 14.4997C12.3937 14.4997 12.167 14.273 12.167 13.9997V11.333C12.167 11.0597 12.3937 10.833 12.667 10.833C12.9403 10.833 13.167 11.0597 13.167 11.333V13.9997C13.167 14.273 12.9403 14.4997 12.667 14.4997Z" fill="#A39F9A"/>
<path d="M10.667 14.4997C10.3937 14.4997 10.167 14.273 10.167 13.9997V11.333C10.167 11.0597 10.3937 10.833 10.667 10.833C10.9403 10.833 11.167 11.0597 11.167 11.333V13.9997C11.167 14.273 10.9403 14.4997 10.667 14.4997Z" fill="#A39F9A"/>
</svg>
