<svg width="16" height="16" viewBox="0 0 16 16" fill="none" xmlns="http://www.w3.org/2000/svg">
<path d="M8.00033 8.16673C7.70699 8.16673 7.41366 8.0934 7.14699 7.9534L2.80699 5.6134C2.41366 5.40006 2.16699 4.98006 2.16699 4.5134C2.16699 4.04673 2.41366 3.62673 2.80699 3.4134L7.14699 1.0734C7.68033 0.786732 8.32033 0.786732 8.84699 1.0734L13.187 3.4134C13.5803 3.62673 13.827 4.04673 13.827 4.5134C13.827 4.98006 13.5803 5.40006 13.187 5.6134L8.84699 7.9534C8.58699 8.10006 8.29366 8.16673 8.00033 8.16673ZM8.00033 1.8534C7.87366 1.8534 7.74033 1.88673 7.62033 1.9534L3.28699 4.28673C3.17366 4.34673 3.16699 4.4734 3.16699 4.5134C3.16699 4.5534 3.17366 4.68006 3.28699 4.7334L7.62699 7.0734C7.86699 7.20006 8.14033 7.20006 8.38033 7.0734L12.7203 4.7334C12.827 4.6734 12.8403 4.54673 12.8403 4.5134C12.8403 4.4734 12.8337 4.34673 12.7203 4.2934L8.38033 1.9534C8.26033 1.88673 8.12699 1.8534 8.00033 1.8534Z" fill="#A39F9A"/>
<path d="M6.51967 15.1468C6.33301 15.1468 6.13967 15.1002 5.96634 15.0135L1.92634 13.0002C1.25301 12.6602 0.833008 11.9802 0.833008 11.2268V7.4135C0.833008 6.98017 1.05301 6.58684 1.41967 6.36017C1.79301 6.1335 2.23967 6.1135 2.62634 6.30684L6.66634 8.32017C7.33967 8.66017 7.75967 9.3335 7.75967 10.0935V13.9068C7.75967 14.3402 7.53967 14.7335 7.17301 14.9602C6.97301 15.0868 6.74634 15.1468 6.51967 15.1468ZM2.07301 7.1735C2.01967 7.1735 1.97301 7.1935 1.94634 7.20684C1.90634 7.2335 1.83301 7.2935 1.83301 7.4135V11.2268C1.83301 11.6002 2.03967 11.9402 2.37301 12.1068L6.40634 14.1268C6.51301 14.1802 6.59967 14.1402 6.63967 14.1202C6.67967 14.0935 6.75301 14.0335 6.75301 13.9135V10.1002C6.75301 9.72684 6.54634 9.38684 6.21301 9.22017L2.17967 7.20017C2.13967 7.18017 2.10634 7.1735 2.07301 7.1735Z" fill="#A39F9A"/>
<path d="M9.48023 15.1467C9.25357 15.1467 9.0269 15.0867 8.8269 14.96C8.46023 14.7333 8.24023 14.34 8.24023 13.9067V10.0933C8.24023 9.34 8.66023 8.66 9.33357 8.32L13.3669 6.3C13.7536 6.10667 14.2069 6.12667 14.5736 6.35334C14.9402 6.58 15.1602 6.97334 15.1602 7.40667V11.22C15.1602 11.9733 14.7402 12.6533 14.0669 12.9933L10.0336 15.0133C9.86023 15.1067 9.6669 15.1467 9.48023 15.1467ZM13.9269 7.17334C13.8936 7.17334 13.8602 7.18 13.8202 7.2L9.7869 9.22C9.45357 9.38667 9.2469 9.72 9.2469 10.1V13.9133C9.2469 14.0333 9.32023 14.0933 9.36023 14.12C9.40023 14.1467 9.4869 14.18 9.59357 14.1267L13.6269 12.1067C13.9602 11.94 14.1669 11.6 14.1669 11.2267V7.41334C14.1669 7.29334 14.0936 7.23334 14.0536 7.20667C14.0269 7.19334 13.9802 7.17334 13.9269 7.17334Z" fill="#A39F9A"/>
</svg>
