<svg width="20" height="20" viewBox="0 0 20 20" fill="none" xmlns="http://www.w3.org/2000/svg">
<path d="M18.3327 13.4917C18.3327 16.525 16.5244 18.3334 13.491 18.3334H12.4993C12.041 18.3334 11.666 17.9584 11.666 17.5V12.6917C11.666 12.4667 11.8493 12.275 12.0743 12.275L13.541 12.25C13.6577 12.2417 13.7577 12.1584 13.7827 12.0417L14.0744 10.45C14.0994 10.3 13.9827 10.1584 13.8243 10.1584L12.0493 10.1834C11.816 10.1834 11.6327 10 11.6244 9.77503L11.591 7.73335C11.591 7.60002 11.6993 7.48336 11.841 7.48336L13.841 7.45002C13.9827 7.45002 14.091 7.3417 14.091 7.20003L14.0577 5.20001C14.0577 5.05835 13.9494 4.95002 13.8077 4.95002L11.5577 4.98336C10.1743 5.00836 9.07436 6.14169 9.09936 7.52502L9.14102 9.81669C9.14935 10.05 8.96602 10.2334 8.73269 10.2417L7.73268 10.2584C7.59101 10.2584 7.48269 10.3667 7.48269 10.5083L7.50769 12.0917C7.50769 12.2334 7.61601 12.3417 7.75768 12.3417L8.75769 12.325C8.99102 12.325 9.17434 12.5084 9.18267 12.7334L9.25767 17.4834C9.266 17.95 8.891 18.3334 8.42434 18.3334H6.50768C3.47435 18.3334 1.66602 16.525 1.66602 13.4833V6.50835C1.66602 3.47502 3.47435 1.66669 6.50768 1.66669H13.491C16.5244 1.66669 18.3327 3.47502 18.3327 6.50835V13.4917Z" fill="#FAFAFA"/>
</svg>
