<svg width="20" height="20" viewBox="0 0 20 20" fill="none" xmlns="http://www.w3.org/2000/svg">
<path d="M13.491 1.66669H6.50768C3.47435 1.66669 1.66602 3.47502 1.66602 6.50835V13.4834C1.66602 16.525 3.47435 18.3334 6.50768 18.3334H13.4827C16.516 18.3334 18.3243 16.525 18.3243 13.4917V6.50835C18.3327 3.47502 16.5243 1.66669 13.491 1.66669ZM9.99935 13.2334C8.21602 13.2334 6.76602 11.7834 6.76602 10C6.76602 8.21669 8.21602 6.76669 9.99935 6.76669C11.7827 6.76669 13.2327 8.21669 13.2327 10C13.2327 11.7834 11.7827 13.2334 9.99935 13.2334ZM14.9327 5.73335C14.891 5.83335 14.8327 5.92502 14.7577 6.00835C14.6743 6.08335 14.5827 6.14169 14.4827 6.18335C14.3827 6.22502 14.2743 6.25002 14.166 6.25002C13.941 6.25002 13.7327 6.16669 13.5743 6.00835C13.4993 5.92502 13.441 5.83335 13.3993 5.73335C13.3577 5.63335 13.3327 5.52502 13.3327 5.41669C13.3327 5.30835 13.3577 5.20002 13.3993 5.10002C13.441 4.99169 13.4993 4.90835 13.5743 4.82502C13.766 4.63335 14.0577 4.54169 14.3243 4.60002C14.3827 4.60835 14.4327 4.62502 14.4827 4.65002C14.5327 4.66669 14.5827 4.69169 14.6327 4.72502C14.6743 4.75002 14.716 4.79169 14.7577 4.82502C14.8327 4.90835 14.891 4.99169 14.9327 5.10002C14.9743 5.20002 14.9993 5.30835 14.9993 5.41669C14.9993 5.52502 14.9743 5.63335 14.9327 5.73335Z" fill="#FAFAFA"/>
</svg>
