<svg width="33" height="32" viewBox="0 0 33 32" fill="none" xmlns="http://www.w3.org/2000/svg">
<path d="M16.3353 29.3337C23.6991 29.3337 29.6686 23.3641 29.6686 16.0003C29.6686 8.63653 23.6991 2.66699 16.3353 2.66699C8.97149 2.66699 3.00195 8.63653 3.00195 16.0003C3.00195 23.3641 8.97149 29.3337 16.3353 29.3337Z" stroke="#4690FF" stroke-width="1.5" stroke-linecap="round" stroke-linejoin="round"/>
<path d="M11.0014 4H12.3348C9.73477 11.7867 9.73477 20.2133 12.3348 28H11.0014" stroke="#4690FF" stroke-width="1.5" stroke-linecap="round" stroke-linejoin="round"/>
<path d="M20.334 4C22.934 11.7867 22.934 20.2133 20.334 28" stroke="#4690FF" stroke-width="1.5" stroke-linecap="round" stroke-linejoin="round"/>
<path d="M4.33398 21.3333V20C12.1207 22.6 20.5473 22.6 28.334 20V21.3333" stroke="#4690FF" stroke-width="1.5" stroke-linecap="round" stroke-linejoin="round"/>
<path d="M4.33398 12C12.1207 9.39999 20.5473 9.39999 28.334 12" stroke="#4690FF" stroke-width="1.5" stroke-linecap="round" stroke-linejoin="round"/>
</svg>
