<svg width="32" height="33" viewBox="0 0 32 33" fill="none" xmlns="http://www.w3.org/2000/svg">
<g id="vuesax/linear/setting-2">
<g id="setting-2">
<path id="Vector" d="M16 20.5C18.2091 20.5 20 18.7091 20 16.5C20 14.2909 18.2091 12.5 16 12.5C13.7909 12.5 12 14.2909 12 16.5C12 18.7091 13.7909 20.5 16 20.5Z" stroke="#4690FF" stroke-width="1.5" stroke-miterlimit="10" stroke-linecap="round" stroke-linejoin="round"/>
<path id="Vector_2" d="M2.66602 17.6733V15.3267C2.66602 13.94 3.79935 12.7933 5.19935 12.7933C7.61268 12.7933 8.59935 11.0867 7.38602 8.99333C6.69268 7.79333 7.10602 6.23333 8.31935 5.54L10.626 4.22C11.6793 3.59333 13.0393 3.96666 13.666 5.02L13.8127 5.27333C15.0127 7.36666 16.986 7.36666 18.1993 5.27333L18.346 5.02C18.9727 3.96666 20.3327 3.59333 21.386 4.22L23.6927 5.54C24.906 6.23333 25.3193 7.79333 24.626 8.99333C23.4127 11.0867 24.3994 12.7933 26.8127 12.7933C28.1994 12.7933 29.346 13.9267 29.346 15.3267V17.6733C29.346 19.06 28.2127 20.2067 26.8127 20.2067C24.3994 20.2067 23.4127 21.9133 24.626 24.0067C25.3193 25.22 24.906 26.7667 23.6927 27.46L21.386 28.78C20.3327 29.4067 18.9727 29.0333 18.346 27.98L18.1993 27.7267C16.9993 25.6333 15.026 25.6333 13.8127 27.7267L13.666 27.98C13.0393 29.0333 11.6793 29.4067 10.626 28.78L8.31935 27.46C7.10602 26.7667 6.69268 25.2067 7.38602 24.0067C8.59935 21.9133 7.61268 20.2067 5.19935 20.2067C3.79935 20.2067 2.66602 19.06 2.66602 17.6733Z" stroke="#4690FF" stroke-width="1.5" stroke-miterlimit="10" stroke-linecap="round" stroke-linejoin="round"/>
</g>
</g>
</svg>
