<svg width="24" height="25" viewBox="0 0 24 25" fill="none" xmlns="http://www.w3.org/2000/svg">
<g clip-path="url(#clip0_162_5246)">
<path d="M19.3726 4.57162H4.61035V18.0397H19.3726V4.57162Z" fill="white"/>
<path fill-rule="evenodd" clip-rule="evenodd" d="M23.9449 12.4551C23.9449 19.0738 18.5963 24.4391 11.9983 24.4391C5.40043 24.4391 0.0517578 19.0738 0.0517578 12.4551C0.0517578 5.83647 5.40043 0.471039 11.9983 0.471039C18.5963 0.471039 23.9449 5.83647 23.9449 12.4551ZM8.61303 17.2241H6.29453C5.80734 17.2241 5.56669 17.2241 5.41996 17.13C5.26147 17.0269 5.16463 16.8561 5.15289 16.6677C5.14408 16.4941 5.26442 16.282 5.50507 15.8581L11.2297 5.73596C11.4733 5.30613 11.5966 5.09121 11.7521 5.01173C11.9194 4.92636 12.119 4.92636 12.2863 5.01173C12.4418 5.09121 12.5651 5.30613 12.8086 5.73596L13.9855 7.79677L13.9915 7.80728C14.2546 8.26841 14.388 8.50225 14.4463 8.74767C14.5108 9.01558 14.5108 9.2982 14.4463 9.56611C14.3876 9.81341 14.2555 10.0489 13.9885 10.517L10.9814 15.8493L10.9736 15.8629C10.7088 16.3278 10.5746 16.5635 10.3886 16.7413C10.1861 16.9356 9.9425 17.0768 9.67543 17.1565C9.43184 17.2241 9.15891 17.2241 8.61303 17.2241ZM14.468 17.2241H17.7901C18.2803 17.2241 18.5268 17.2241 18.6736 17.1271C18.8321 17.024 18.9318 16.8502 18.9407 16.6619C18.9492 16.4939 18.8314 16.2901 18.6008 15.8908C18.5928 15.8772 18.5849 15.8634 18.5768 15.8493L16.9127 12.9936L16.8937 12.9615C16.6599 12.5648 16.5419 12.3645 16.3903 12.2871C16.2231 12.2017 16.0263 12.2017 15.8591 12.2871C15.7065 12.3666 15.5832 12.5756 15.3396 12.9966L13.6815 15.8523L13.6758 15.8621C13.4331 16.2824 13.3117 16.4925 13.3205 16.6648C13.3322 16.8533 13.4291 17.0269 13.5875 17.13C13.7314 17.2241 13.9779 17.2241 14.468 17.2241Z" fill="#E84142"/>
</g>
<defs>
<clipPath id="clip0_162_5246">
<rect width="23.9091" height="24" fill="white" transform="translate(0.0458984 0.454437)"/>
</clipPath>
</defs>
</svg>
