<svg width="24" height="25" viewBox="0 0 24 25" fill="none" xmlns="http://www.w3.org/2000/svg">
<g clip-path="url(#clip0_162_5226)">
<path fill-rule="evenodd" clip-rule="evenodd" d="M12 0.454468C18.6279 0.454468 24 5.82658 24 12.4545C24 19.0824 18.6279 24.4545 12 24.4545C5.37212 24.4545 0 19.0824 0 12.4545C0 5.82658 5.37212 0.454468 12 0.454468Z" fill="#F0B90B"/>
<path d="M6.59558 12.455L6.60424 15.628L9.30039 17.2146V19.0723L5.02635 16.5655V11.5271L6.59558 12.455ZM6.59558 9.28189V11.1309L5.02539 10.2021V8.35304L6.59558 7.42419L8.17347 8.35304L6.59558 9.28189ZM10.4264 8.35304L11.9965 7.42419L13.5744 8.35304L11.9965 9.28189L10.4264 8.35304Z" fill="white"/>
<path d="M7.73047 14.9703V13.1127L9.30066 14.0415V15.8905L7.73047 14.9703ZM10.4266 17.88L11.9968 18.8088L13.5747 17.88V19.729L11.9968 20.6578L10.4266 19.729V17.88ZM15.8266 8.35304L17.3968 7.42419L18.9747 8.35304V10.2021L17.3968 11.1309V9.28189L15.8266 8.35304ZM17.3968 15.628L17.4055 12.455L18.9757 11.5261V16.5646L14.7016 19.0713V17.2136L17.3968 15.628Z" fill="white"/>
<path d="M16.2714 14.9704L14.7012 15.8906V14.0415L16.2714 13.1127V14.9704Z" fill="white"/>
<path d="M16.2709 9.93884L16.2795 11.7965L13.5757 13.3831V16.5638L12.0055 17.484L10.4353 16.5638V13.3831L7.73143 11.7965V9.93884L9.30835 9.01L11.9959 10.6042L14.6997 9.01L16.2776 9.93884H16.2709ZM7.73047 6.76673L11.9968 4.25134L16.2709 6.76673L14.7007 7.69557L11.9968 6.10134L9.30066 7.69557L7.73047 6.76673Z" fill="white"/>
</g>
<defs>
<clipPath id="clip0_162_5226">
<rect width="24" height="24" fill="white" transform="translate(0 0.454468)"/>
</clipPath>
</defs>
</svg>
