<svg width="24" height="25" viewBox="0 0 24 25" fill="none" xmlns="http://www.w3.org/2000/svg">
<g clip-path="url(#clip0_162_5254)">
<path d="M7.60444 6.73091C7.61724 6.72291 7.63004 6.71651 7.64444 6.71171C7.79164 6.64451 7.94044 6.57891 8.08764 6.52131V3.60291C8.08764 3.07331 7.65724 2.64291 7.12764 2.64291H3.14844V11.0173C4.11964 9.13571 5.68764 7.62851 7.60444 6.73091Z" fill="#3D8545"/>
<path d="M11.6599 11.8333H12.5463C13.8343 11.8349 14.8791 10.7933 14.8807 9.50528V7.00608C14.4007 6.92288 12.2071 6.87648 11.6983 6.87648C6.77513 6.83328 2.76873 11.1421 3.14793 16.0413V21.3661C3.14793 21.8957 3.57833 22.3261 4.10793 22.3261H8.08713V15.3933C8.09193 13.4237 9.69033 11.8317 11.6599 11.8333Z" fill="#3D8545"/>
<path d="M16.6922 18.2332C16.681 18.2412 16.6666 18.246 16.6538 18.2508C16.5066 18.3196 16.3578 18.3852 16.209 18.4428V21.3612C16.209 21.8908 16.6394 22.3212 17.169 22.3212H21.145V13.9468C20.1738 15.8268 18.609 17.334 16.6922 18.2332Z" fill="#3D8545"/>
<path d="M21.1437 8.92541V3.59901C21.1437 3.06941 20.7133 2.63901 20.1837 2.63901H16.2045V9.57021C16.1997 11.5366 14.6061 13.1286 12.6397 13.1318H11.7453C10.4589 13.1302 9.41566 14.1702 9.41406 15.4566V17.9606C10.0029 18.0486 12.1581 18.0982 12.7741 18.087C13.9677 18.0662 15.1421 17.7926 16.2237 17.287L16.2461 17.2758C19.4477 15.7718 21.3933 12.4534 21.1437 8.92541Z" fill="#3D8545"/>
</g>
<defs>
<clipPath id="clip0_162_5254">
<rect width="24" height="24" fill="white" transform="translate(0 0.454437)"/>
</clipPath>
</defs>
</svg>
