<svg width="16" height="16" viewBox="0 0 16 16" fill="none" xmlns="http://www.w3.org/2000/svg">
<path d="M8.09961 11V12.4" stroke="#A39F9A" stroke-linecap="round" stroke-linejoin="round"/>
<path d="M4.76562 14.667H11.4323V14.0003C11.4323 13.267 10.8323 12.667 10.099 12.667H6.09896C5.36562 12.667 4.76562 13.267 4.76562 14.0003V14.667V14.667Z" stroke="#A39F9A" stroke-miterlimit="10"/>
<path d="M4.09961 14.667H12.0996" stroke="#A39F9A" stroke-linecap="round" stroke-linejoin="round"/>
<path d="M7.9987 10.6663C5.4187 10.6663 3.33203 8.57967 3.33203 5.99967V3.99967C3.33203 2.52634 4.52536 1.33301 5.9987 1.33301H9.9987C11.472 1.33301 12.6654 2.52634 12.6654 3.99967V5.99967C12.6654 8.57967 10.5787 10.6663 7.9987 10.6663Z" stroke="#A39F9A" stroke-linecap="round" stroke-linejoin="round"/>
<path d="M3.64604 7.76706C3.14604 7.60706 2.70604 7.31372 2.35938 6.96706C1.75938 6.30039 1.35938 5.50039 1.35938 4.56706C1.35938 3.63372 2.09271 2.90039 3.02604 2.90039H3.45938C3.32604 3.20706 3.25937 3.54706 3.25937 3.90039V5.90039C3.25937 6.56706 3.39937 7.19372 3.64604 7.76706Z" stroke="#A39F9A" stroke-linecap="round" stroke-linejoin="round"/>
<path d="M12.3535 7.76706C12.8535 7.60706 13.2935 7.31372 13.6402 6.96706C14.2402 6.30039 14.6402 5.50039 14.6402 4.56706C14.6402 3.63372 13.9068 2.90039 12.9735 2.90039H12.5402C12.6735 3.20706 12.7402 3.54706 12.7402 3.90039V5.90039C12.7402 6.56706 12.6002 7.19372 12.3535 7.76706Z" stroke="#A39F9A" stroke-linecap="round" stroke-linejoin="round"/>
</svg>
