<svg width="16" height="16" viewBox="0 0 16 16" fill="none" xmlns="http://www.w3.org/2000/svg">
<path d="M2.49838 10.7721H4.54095L3.93152 13.799C3.91813 13.8696 3.91143 13.9414 3.91152 14.0133C3.91152 14.3413 4.13895 14.5221 4.45381 14.5221C4.77524 14.5221 5.00952 14.3478 5.07667 14.0198L5.73267 10.7721H8.90009L8.29095 13.799C8.27095 13.8658 8.26438 13.9464 8.26438 14.0133C8.26438 14.3413 8.49209 14.5221 8.81352 14.5221C9.13495 14.5221 9.36924 14.3478 9.43638 14.0198L10.0852 10.7721H12.4758C12.8441 10.7721 13.0987 10.5044 13.0987 10.1427C13.0987 9.84811 12.8978 9.60697 12.5964 9.60697H10.3261L11.0367 6.07125H13.3804C13.749 6.07125 14.0032 5.80354 14.0032 5.44183C14.0032 5.14725 13.8024 4.90611 13.501 4.90611H11.271L11.8201 2.20754C11.8267 2.16725 11.8401 2.08011 11.8401 1.99325C11.8401 1.66497 11.6058 1.47754 11.2844 1.47754C10.9095 1.47754 10.7421 1.68497 10.675 1.99982L10.0858 4.90611H6.91809L7.46724 2.20754C7.47381 2.16725 7.48724 2.08011 7.48724 1.99325C7.48724 1.66497 7.24609 1.47754 6.93152 1.47754C6.54981 1.47754 6.37552 1.68497 6.31524 1.99982L5.72609 4.90611H3.52981C3.16124 4.90611 2.90695 5.18725 2.90695 5.55554C2.90695 5.85697 3.10781 6.07125 3.40924 6.07125H5.49181L4.78181 9.60697H2.61895C2.25038 9.60697 1.99609 9.88811 1.99609 10.2564C1.99609 10.5578 2.19695 10.7721 2.49838 10.7721ZM5.96695 9.60697L6.68381 6.07125H9.85095L9.13438 9.60697H5.96695Z" fill="#A39F9A"/>
</svg>
